<?xml version="1.0" encoding="UTF-8" standalone="no"?>
<!DOCTYPE svg PUBLIC "-//W3C//DTD SVG 1.1//EN" "http://www.w3.org/Graphics/SVG/1.1/DTD/svg11.dtd">
<svg width="100%" height="100%" viewBox="0 0 5689 5689" version="1.1" xmlns="http://www.w3.org/2000/svg" xmlns:xlink="http://www.w3.org/1999/xlink" xml:space="preserve" xmlns:serif="http://www.serif.com/" style="fill-rule:evenodd;clip-rule:evenodd;stroke-linejoin:round;stroke-miterlimit:2;">
    <g transform="matrix(2.77778,0,0,2.77778,0,0)">
        <g id="Background" transform="matrix(2,0,0,2,0,0)">
            <g id="Path-1" serif:id="Path 1" transform="matrix(2.23785,5.48116e-16,-5.48116e-16,2.23785,-633.375,-633.68)">
                <path d="M470,332.08C465.32,333.13 457.23,335.37 452,337.06C446.77,338.75 435.75,343.47 427.5,347.55C419.25,351.63 408.23,358 403,361.7C397.52,365.59 386.87,375.087 379.5,382.47C372.13,389.853 362.62,400.57 358.78,406C355.08,411.23 349.16,421.13 345.62,428C342.07,434.88 337.61,445 335.7,450.5C333.79,456 331.02,465.9 329.55,472.5C328.07,479.1 326.36,490.58 325.74,498C324.88,508.24 324.9,514.89 325.81,525.5C326.47,533.2 327.94,544 329.08,549.5C330.23,555 332.73,564.23 334.66,570C336.58,575.77 340.55,585.45 343.47,591.5C346.4,597.55 351.46,606.55 354.73,611.5C357.99,616.45 363.38,623.88 366.7,628C370.01,632.13 377.22,639.77 382.72,645C388.21,650.23 396.26,657.06 400.6,660.18C404.95,663.31 412.32,668.15 417,670.94C421.68,673.73 430.68,678.19 437,680.86C443.32,683.53 452.55,686.89 457.5,688.32C462.45,689.75 470.167,691.513 474.25,692.46C476.816,693.055 482,694 482,694L482,656C482,656 469,653.3 463.5,651.51C458,649.73 450.13,646.58 446,644.52C441.88,642.46 435.8,639.18 432.5,637.22C429.2,635.26 422.9,630.86 418.5,627.46C414.1,624.05 406.65,617.26 401.95,612.38C397.25,607.5 391.02,600.13 388.11,596C385.2,591.88 380.66,584.23 378.02,579C375.39,573.77 371.88,565.67 370.22,561C368.57,556.33 366.15,547.77 364.86,542C362.79,532.77 362.51,529.02 362.55,511C362.59,493.31 362.91,489.2 364.86,481C366.1,475.77 368.26,468.13 369.67,464C371.07,459.88 374.37,452 377,446.5C379.63,441 384.37,432.9 387.53,428.5C390.69,424.1 395.8,417.63 398.89,414.13C401.97,410.62 408.1,404.71 412.5,400.99C416.9,397.27 425,391.4 430.5,387.94C436,384.47 444.1,379.96 448.5,377.91C452.9,375.86 461,372.82 466.5,371.15C472,369.49 476.667,368.252 479.25,367.56C480.154,367.318 482,367 482,367L481.839,330.022C481.839,330.022 474.68,331.03 470,332.08ZM542.06,348.45L542,367C542,367 553.117,369.364 558.5,371.15C564.333,373.085 571.025,375.693 577,378.61C583.25,381.662 589.958,385.495 596,389.46C602.009,393.404 607.868,397.685 613.25,402.4C618.632,407.115 623.703,412.248 628.29,417.75C632.958,423.35 637.5,429.792 641.26,436C644.935,442.068 648.163,448.5 650.85,455C653.529,461.481 655.665,468.5 657.38,475C659.027,481.243 660.49,487.577 661.14,494C661.857,501.083 662.014,509.672 661.68,517.5C661.338,525.5 660.297,535 659.09,542C658.065,547.948 656.407,553.794 654.44,559.5C652.4,565.417 649.83,571.71 646.85,577.5C643.643,583.73 639.703,590.835 635.2,596.88C630.308,603.447 623.617,610.907 617.5,616.9C611.595,622.686 604.917,628.347 598.5,632.84C592.384,637.123 585.583,640.627 579,643.86C572.512,647.046 564.458,650.225 559,652.24C554.848,653.773 549.083,655.157 546.25,655.95C544.845,656.343 542,657 542,657L542,694C542,694 555,691.357 560,690.13C564.046,689.137 568.066,688.009 572,686.64C576.833,684.958 583.476,682.578 589,680.04C595.145,677.217 602.496,673.589 608.87,669.7C615.598,665.595 622.89,660.583 629.37,655.41C635.848,650.238 642.292,644.27 647.75,638.66C652.908,633.358 657.777,627.527 662.12,621.75C666.378,616.087 670.318,609.958 673.81,604C677.221,598.179 680.395,592 683.07,586C685.681,580.143 687.903,574.107 689.86,568C691.837,561.833 693.668,555.432 694.93,549C696.303,542 697.608,533.723 698.1,526C698.637,517.583 698.683,507.083 698.15,498.5C697.649,490.443 696.358,481.917 694.9,474.5C693.535,467.558 691.707,460.688 689.4,454C686.928,446.833 683.558,438.667 680.07,431.5C676.634,424.44 672.397,417.083 668.47,411C664.859,405.406 660.832,400.065 656.51,395C651.817,389.5 646.032,383.341 640.31,378C634.418,372.5 627.672,366.702 621.16,362C614.846,357.441 608.017,353.433 601.24,349.79C594.524,346.179 587.373,342.825 580.5,340.14C573.827,337.533 565.782,335.282 560,333.68C555.331,332.386 548.792,331.158 545.81,330.53C544.586,330.272 542.11,329.91 542.11,329.91L542.06,348.45Z" style="fill:rgb(109,18,21);fill-rule:nonzero;"/>
            </g>
            <g id="Path-2" serif:id="Path 2" transform="matrix(2.23785,5.48116e-16,-5.48116e-16,2.23785,-633.709,-633.174)">
                <path d="M542,407.75L542.5,485L482,485L482,367C476.957,367.896 470.32,369.825 464,371.895C457.68,373.965 449.35,377.34 445.5,379.3C441.65,381.25 436.177,384.209 433.427,386.039L428.438,389.246L428.476,634.65C433.906,638.22 439.424,641.282 444.374,643.792C449.324,646.312 458,649.72 463.5,651.51C469,653.3 475.41,655.05 477.75,655.38L482,656L482,539L542,539C541.61,647.11 542,657 542,657C548.59,655.38 554.1,653.77 558.5,652.38C562.9,650.99 569.88,648.29 574,646.39C578.13,644.48 584.65,641.12 588.5,638.92L595.498,634.764L595.04,388.5C582.22,381.12 574.67,377.37 570,375.41C565.33,373.45 557.12,370.64 551.78,369.17L542.05,366.5C542.104,366.227 541.623,366.058 542,407.75Z" style="fill:rgb(239,149,49);fill-rule:nonzero;"/>
            </g>
        </g>
    </g>
</svg>
