<?xml version="1.0" encoding="UTF-8" standalone="no"?>
<!DOCTYPE svg PUBLIC "-//W3C//DTD SVG 1.1//EN" "http://www.w3.org/Graphics/SVG/1.1/DTD/svg11.dtd">
<svg width="100%" height="100%" viewBox="0 0 1080 1080" version="1.1" xmlns="http://www.w3.org/2000/svg" xmlns:xlink="http://www.w3.org/1999/xlink" xml:space="preserve" xmlns:serif="http://www.serif.com/" style="fill-rule:evenodd;clip-rule:evenodd;stroke-linejoin:round;stroke-miterlimit:2;">
    <g transform="matrix(1,0,0,1,151.842,151.842)">
        <g transform="matrix(-1.43625,1.75889e-16,-1.75889e-16,-1.43625,1189.66,1204.06)">
            <path d="M906.117,394.048L906.117,742.113C906.117,838.164 828.136,916.145 732.085,916.145L384.02,916.145C287.969,916.145 209.987,838.164 209.987,742.113L209.987,394.048C209.987,297.997 287.969,220.016 384.02,220.016L732.085,220.016C828.136,220.016 906.117,297.997 906.117,394.048Z" style="fill:rgb(159,0,0);"/>
        </g>
        <g transform="matrix(1.59664,0,0,1.59664,-508.576,-525.919)">
            <g transform="matrix(398.551,0,0,398.551,890.045,713.588)">
            </g>
            <text x="246.385px" y="713.588px" style="font-family:'AvenirNext-Bold', 'Avenir Next', sans-serif;font-weight:700;font-size:398.551px;fill:rgb(255,122,0);">OH</text>
        </g>
    </g>
</svg>
